<svg width="48" height="10" viewBox="0 0 48 10" fill="none" xmlns="http://www.w3.org/2000/svg">
<path d="M5.33558 0.954984H0.800781V9.43024H1.89808V2.05577H5.33558V0.954984Z" fill="white"/>
<path d="M7.52184 9.43024H7.83434C9.48917 9.43024 9.8869 7.99839 9.98278 5.27538L10.0964 2.03922H12.5787V9.43024H13.6618V0.954984H9.06303L8.93874 4.93604C8.86062 7.39006 8.60494 8.28807 7.73491 8.3129L7.52184 8.32118V9.43024Z" fill="white"/>
<path d="M17.3741 9.43024L18.0417 7.18728H20.8826L21.5467 9.43024H22.7115L20.0943 0.954984H18.8265L16.2093 9.43024H17.3741ZM18.3613 6.11132L19.4338 2.49444H19.4906L20.563 6.11132H18.3613Z" fill="white"/>
<path d="M27.6942 9.54612C29.1786 9.54612 30.2688 8.51154 30.2653 7.10451C30.2688 6.03269 29.7113 5.26297 28.7454 5.08916V5.02294C29.5053 4.79534 29.9989 4.1001 29.9954 3.14829C29.9989 1.90266 29.1218 0.839111 27.7227 0.839111C26.3874 0.839111 25.315 1.77851 25.2795 3.15656H26.3413C26.3661 2.37856 26.9947 1.9068 27.7085 1.9068C28.4506 1.9068 28.9371 2.43236 28.9336 3.2145C28.9371 4.03389 28.3725 4.57187 27.5664 4.57187H26.9521V5.61472H27.5664C28.5749 5.61472 29.1573 6.21064 29.1573 7.06313C29.1573 7.88665 28.543 8.44533 27.6871 8.44533C26.8988 8.44533 26.2844 7.97356 26.2418 7.22039H25.1268C25.1729 8.60258 26.2241 9.54612 27.6942 9.54612Z" fill="white"/>
<path d="M39.5245 5.19261C39.5245 2.48202 38.1325 0.839111 36.2504 0.839111C34.3611 0.839111 32.9727 2.48202 32.9727 5.19261C32.9727 7.89907 34.3611 9.54612 36.2504 9.54612C38.1325 9.54612 39.5245 7.90321 39.5245 5.19261ZM38.4379 5.19261C38.4379 7.25763 37.5004 8.37911 36.2504 8.37911C34.9968 8.37911 34.0629 7.25763 34.0629 5.19261C34.0629 3.1276 34.9968 2.00612 36.2504 2.00612C37.5004 2.00612 38.4379 3.1276 38.4379 5.19261Z" fill="white"/>
<path d="M42.3926 9.43024H45.1802C46.8706 9.43024 47.6341 8.44946 47.6341 7.15003C47.6341 5.83819 46.8457 5.09743 46.1248 5.05191V4.96914C46.7924 4.77051 47.35 4.2408 47.35 3.1814C47.35 1.92749 46.6042 0.954984 45.0559 0.954984H42.3926V9.43024ZM43.4899 8.33359V5.61886H45.1127C45.9934 5.61886 46.5439 6.28099 46.5439 7.08796C46.5439 7.79975 46.1284 8.33359 45.0737 8.33359H43.4899ZM43.4899 4.62153V2.04336H44.9885C45.8585 2.04336 46.274 2.5772 46.274 3.28071C46.274 4.1001 45.6987 4.62153 44.96 4.62153H43.4899Z" fill="white"/>
</svg>
