<svg width="85" height="10" viewBox="0 0 85 10" fill="none" xmlns="http://www.w3.org/2000/svg">
<path d="M4.61954 8.98469H5.95832L2.95761 4.3415L5.97607 0.509428H4.61599L1.78573 4.08907H1.40931V0.509428H0.312012V8.98469H1.40931V5.18572H2.16215L4.61954 8.98469Z" fill="white"/>
<path d="M14.526 4.74706C14.526 2.03646 13.1339 0.393555 11.2518 0.393555C9.36261 0.393555 7.97412 2.03646 7.97412 4.74706C7.97412 7.45351 9.36261 9.10056 11.2518 9.10056C13.1339 9.10056 14.526 7.45765 14.526 4.74706ZM13.4393 4.74706C13.4393 6.81207 12.5018 7.93356 11.2518 7.93356C9.99827 7.93356 9.06432 6.81207 9.06432 4.74706C9.06432 2.68204 9.99827 1.56056 11.2518 1.56056C12.5018 1.56056 13.4393 2.68204 13.4393 4.74706Z" fill="white"/>
<path d="M16.7326 1.61022H18.9983V8.98469H20.092V1.61022H22.3612V0.509428H16.7326V1.61022Z" fill="white"/>
<path d="M25.105 8.98469H29.7073V7.8839H26.2023V5.28918H29.4267V4.19252H26.2023V1.61022H29.6646V0.509428H25.105V8.98469Z" fill="white"/>
<path d="M32.0799 8.98469H32.3924C34.0473 8.98469 34.445 7.55283 34.5409 4.82982L34.6545 1.59366H37.1368V8.98469H38.2199V0.509428H33.6211L33.4968 4.49048C33.4187 6.9445 33.163 7.84251 32.293 7.86734L32.0799 7.87562V8.98469Z" fill="white"/>
<path d="M42.4258 3.92767V0.509428H41.325V8.98469H44.0487C45.668 8.98469 46.5949 7.93356 46.5913 6.4148C46.5949 4.90017 45.668 3.92767 44.0487 3.92767H42.4258ZM42.4258 5.00363H44.0487C44.9897 5.00363 45.5082 5.63266 45.5082 6.39824C45.5082 7.18452 44.9897 7.90873 44.0487 7.90873H42.4258V5.00363Z" fill="white"/>
<path d="M49.4292 8.98469H50.5265V5.28918H54.1522V8.98469H55.2531V0.509428H54.1522V4.19252H50.5265V0.509428H49.4292V8.98469Z" fill="white"/>
<path d="M58.3511 0.509428V8.98469H59.3596L63.0563 2.76894H63.1238V8.98469H64.2211V0.509428H63.2055L59.5052 6.73345H59.4377V0.509428H58.3511Z" fill="white"/>
<path d="M67.4674 0.509428V3.30692C67.4638 5.19813 68.4475 5.94303 70.0384 5.94303C70.738 5.94303 71.3417 5.83957 71.8637 5.66576V8.98469H72.9503V0.509428H71.8637V4.57325C71.3204 4.74292 70.6456 4.84638 70.0384 4.84638C69.0902 4.84638 68.5505 4.47393 68.5505 3.30692V0.509428H67.4674Z" fill="white"/>
<path d="M79.2648 4.21321H76.0404V5.28504H79.2648V4.21321Z" fill="white"/>
<path d="M84.7225 0.509428H83.6998C83.6607 0.741173 83.1068 1.813 82.045 1.813V2.86413C82.8688 2.86413 83.4406 2.4834 83.5613 2.2351H83.6217V8.98469H84.7225V0.509428Z" fill="white"/>
</svg>
