<svg width="81" height="10" viewBox="0 0 81 10" fill="none" xmlns="http://www.w3.org/2000/svg">
<path d="M4.38077 9.54133H5.71955L2.71884 4.89814L5.7373 1.06607H4.37722L1.54696 4.64571H1.17054V1.06607H0.0732422V9.54133H1.17054V5.74236H1.92338L4.38077 9.54133Z" fill="white"/>
<path d="M8.33105 9.54133H9.42836V6.56174H10.9198C12.6066 6.56174 13.4411 5.37405 13.4411 3.80977C13.4411 2.24962 12.6137 1.06607 10.9234 1.06607H8.33105V9.54133ZM9.42836 5.47751V2.16272H10.8062C11.8928 2.16272 12.3367 2.84968 12.3367 3.80977C12.3367 4.76986 11.8928 5.47751 10.8204 5.47751H9.42836Z" fill="white"/>
<path d="M16.0704 9.54133L16.738 7.29836H19.5789L20.243 9.54133H21.4078L18.7906 1.06607H17.5228L14.9056 9.54133H16.0704ZM17.0576 6.2224L18.1301 2.60552H18.1869L19.2593 6.2224H17.0576Z" fill="white"/>
<path d="M29.6567 3.82218C29.4081 2.0096 28.1901 0.950195 26.6524 0.950195C24.7703 0.950195 23.3818 2.5931 23.3818 5.3037C23.3818 8.01429 24.7632 9.6572 26.6524 9.6572C28.2504 9.6572 29.4188 8.4902 29.6567 6.81418L28.5487 6.81004C28.3605 7.89428 27.5793 8.4902 26.6595 8.4902C25.4131 8.4902 24.472 7.37699 24.472 5.3037C24.472 3.24696 25.4095 2.1172 26.6631 2.1172C27.5899 2.1172 28.3676 2.72553 28.5487 3.82218H29.6567Z" fill="white"/>
<path d="M32.4697 9.54133H33.567V5.84582H37.1927V9.54133H38.2936V1.06607H37.1927V4.74916H33.567V1.06607H32.4697V9.54133Z" fill="white"/>
<path d="M47.7091 5.3037C47.7091 2.5931 46.317 0.950195 44.4349 0.950195C42.5457 0.950195 41.1572 2.5931 41.1572 5.3037C41.1572 8.01015 42.5457 9.6572 44.4349 9.6572C46.317 9.6572 47.7091 8.01429 47.7091 5.3037ZM46.6224 5.3037C46.6224 7.36871 45.6849 8.4902 44.4349 8.4902C43.1814 8.4902 42.2474 7.36871 42.2474 5.3037C42.2474 3.23868 43.1814 2.1172 44.4349 2.1172C45.6849 2.1172 46.6224 3.23868 46.6224 5.3037Z" fill="white"/>
<path d="M55.428 9.54133V1.06607H52.8357C51.1489 1.06607 50.3179 2.16272 50.3179 3.72286C50.3179 4.8609 50.7618 5.72581 51.6531 6.11067L50.0409 9.54133H51.2909L52.7682 6.33414C52.7931 6.33414 52.8144 6.33414 52.8392 6.33414H54.3307V9.54133H55.428ZM54.3307 5.23335H52.9387C51.8698 5.23335 51.4223 4.67881 51.4223 3.72286C51.4223 2.76278 51.8698 2.16272 52.9529 2.16272H54.3307V5.23335Z" fill="white"/>
<path d="M58.5225 9.54133H59.6198V6.56174H61.1112C62.798 6.56174 63.6325 5.37405 63.6325 3.80977C63.6325 2.24962 62.8051 1.06607 61.1148 1.06607H58.5225V9.54133ZM59.6198 5.47751V2.16272H60.9976C62.0843 2.16272 62.5281 2.84968 62.5281 3.80977C62.5281 4.76986 62.0843 5.47751 61.0118 5.47751H59.6198Z" fill="white"/>
<path d="M72.4594 3.82218C72.2108 2.0096 70.9928 0.950195 69.4552 0.950195C67.5731 0.950195 66.1846 2.5931 66.1846 5.3037C66.1846 8.01429 67.566 9.6572 69.4552 9.6572C71.0532 9.6572 72.2215 8.4902 72.4594 6.81418L71.3515 6.81004C71.1633 7.89428 70.382 8.4902 69.4623 8.4902C68.2158 8.4902 67.2748 7.37699 67.2748 5.3037C67.2748 3.24696 68.2123 2.1172 69.4658 2.1172C70.3927 2.1172 71.1704 2.72553 71.3515 3.82218H72.4594Z" fill="white"/>
<path d="M79.58 9.54133H80.9188L77.9181 4.89814L80.9365 1.06607H79.5764L76.7462 4.64571H76.3698V1.06607H75.2725V9.54133H76.3698V5.74236H77.1226L79.58 9.54133Z" fill="white"/>
</svg>
