<svg width="77" height="10" viewBox="0 0 77 10" fill="none" xmlns="http://www.w3.org/2000/svg">
<path d="M0.801758 0.876127V9.35139H1.84579V3.21427H1.91326L4.05815 9.33897H4.92463L7.06951 3.21841H7.13699V9.35139H8.18102V0.876127H6.84934L4.534 7.46432H4.44878L2.13343 0.876127H0.801758Z" fill="white"/>
<path d="M12.0763 9.35139L12.7439 7.10842H15.5848L16.2488 9.35139H17.4136L14.7964 0.876127H13.5287L10.9115 9.35139H12.0763ZM13.0635 6.03246L14.1359 2.41558H14.1927L15.2652 6.03246H13.0635Z" fill="white"/>
<path d="M19.9639 9.35139H21.0612V5.65587H24.6869V9.35139H25.7877V0.876127H24.6869V4.55922H21.0612V0.876127H19.9639V9.35139Z" fill="white"/>
<path d="M28.5271 1.97692H30.7927V9.35139H31.8865V1.97692H34.1556V0.876127H28.5271V1.97692Z" fill="white"/>
<path d="M37.4143 9.46726H37.9115C39.0479 9.46726 39.4243 8.7265 39.7439 7.88229L42.2581 0.876127H41.1075L39.4101 5.77589L37.5031 0.876127H36.3383L38.8951 7.23671L38.7922 7.53881C38.6359 7.9816 38.3944 8.34164 37.8511 8.34164H37.4143V9.46726Z" fill="white"/>
<path d="M44.7959 9.35139H45.8932V6.3718H47.3847C49.0715 6.3718 49.906 5.18411 49.906 3.61983C49.906 2.05968 49.0786 0.876127 47.3882 0.876127H44.7959V9.35139ZM45.8932 5.28757V1.97278H47.271C48.3577 1.97278 48.8016 2.65974 48.8016 3.61983C48.8016 4.57991 48.3577 5.28757 47.2852 5.28757H45.8932Z" fill="white"/>
<path d="M59.0099 5.11376C59.0099 2.40316 57.6178 0.760254 55.7357 0.760254C53.8465 0.760254 52.458 2.40316 52.458 5.11376C52.458 7.82021 53.8465 9.46726 55.7357 9.46726C57.6178 9.46726 59.0099 7.82435 59.0099 5.11376ZM57.9232 5.11376C57.9232 7.17877 56.9857 8.30025 55.7357 8.30025C54.4822 8.30025 53.5482 7.17877 53.5482 5.11376C53.5482 3.04874 54.4822 1.92726 55.7357 1.92726C56.9857 1.92726 57.9232 3.04874 57.9232 5.11376Z" fill="white"/>
<path d="M61.8779 9.35139H64.6656C66.3559 9.35139 67.1194 8.37061 67.1194 7.07118C67.1194 5.75933 66.3311 5.01857 65.6102 4.97305V4.89029C66.2778 4.69165 66.8353 4.16195 66.8353 3.10254C66.8353 1.84863 66.0896 0.876127 64.5413 0.876127H61.8779V9.35139ZM62.9752 8.25473V5.54H64.5981C65.4788 5.54 66.0292 6.20213 66.0292 7.0091C66.0292 7.72089 65.6137 8.25473 64.559 8.25473H62.9752ZM62.9752 4.54267V1.9645H64.4738C65.3438 1.9645 65.7593 2.49834 65.7593 3.20186C65.7593 4.02124 65.184 4.54267 64.4454 4.54267H62.9752Z" fill="white"/>
<path d="M76.2384 5.11376C76.2384 2.40316 74.8463 0.760254 72.9642 0.760254C71.075 0.760254 69.6865 2.40316 69.6865 5.11376C69.6865 7.82021 71.075 9.46726 72.9642 9.46726C74.8463 9.46726 76.2384 7.82435 76.2384 5.11376ZM75.1517 5.11376C75.1517 7.17877 74.2142 8.30025 72.9642 8.30025C71.7107 8.30025 70.7767 7.17877 70.7767 5.11376C70.7767 3.04874 71.7107 1.92726 72.9642 1.92726C74.2142 1.92726 75.1517 3.04874 75.1517 5.11376Z" fill="white"/>
</svg>
