<svg width="36" height="9" viewBox="0 0 36 9" fill="none" xmlns="http://www.w3.org/2000/svg">
<path d="M7.45614 4.36424C7.45614 1.65365 6.0641 0.0107422 4.182 0.0107422C2.29279 0.0107422 0.904297 1.65365 0.904297 4.36424C0.904297 7.0707 2.29279 8.71775 4.182 8.71775C6.0641 8.71775 7.45614 7.07484 7.45614 4.36424ZM6.3695 4.36424C6.3695 6.42926 5.432 7.55074 4.182 7.55074C2.92845 7.55074 1.9945 6.42926 1.9945 4.36424C1.9945 2.29923 2.92845 1.17775 4.182 1.17775C5.432 1.17775 6.3695 2.29923 6.3695 4.36424Z" fill="white"/>
<path d="M10.3242 0.126615V8.60187H11.3683V2.46476H11.4357L13.5806 8.58946H14.4471L16.592 2.4689H16.6594V8.60187H17.7035V0.126615H16.3718L14.0565 6.7148H13.9712L11.6559 0.126615H10.3242Z" fill="white"/>
<path d="M27.0249 2.88273C26.7763 1.07015 25.5582 0.0107422 24.0206 0.0107422C22.1385 0.0107422 20.75 1.65365 20.75 4.36424C20.75 7.07484 22.1314 8.71775 24.0206 8.71775C25.6186 8.71775 26.7869 7.55074 27.0249 5.87473L25.9169 5.87059C25.7287 6.95483 24.9474 7.55074 24.0277 7.55074C22.7813 7.55074 21.8402 6.43754 21.8402 4.36424C21.8402 2.3075 22.7777 1.17775 24.0313 1.17775C24.9581 1.17775 25.7358 1.78608 25.9169 2.88273H27.0249Z" fill="white"/>
<path d="M34.1454 8.60187H35.4842L32.4835 3.95869L35.502 0.126615H34.1419L31.3116 3.70625H30.9352V0.126615H29.8379V8.60187H30.9352V4.80291H31.688L34.1454 8.60187Z" fill="white"/>
</svg>
