<svg width="42" height="10" viewBox="0 0 42 10" fill="none" xmlns="http://www.w3.org/2000/svg">
<path d="M6.56685 0.817383H0.956055V9.29264H2.0498V1.9099H5.4731V9.29264H6.56685V0.817383Z" fill="white"/>
<path d="M9.74476 9.29264H14.347V8.19185H10.8421V5.59713H14.0665V4.50048H10.8421V1.91817H14.3044V0.817383H9.74476V9.29264Z" fill="white"/>
<path d="M17.2702 9.29264H18.3675V6.31306H19.8589C21.5457 6.31306 22.3802 5.12536 22.3802 3.56108C22.3802 2.00094 21.5528 0.817383 19.8625 0.817383H17.2702V9.29264ZM18.3675 5.22882V1.91404H19.7453C20.8319 1.91404 21.2758 2.60099 21.2758 3.56108C21.2758 4.52117 20.8319 5.22882 19.7595 5.22882H18.3675Z" fill="white"/>
<path d="M25.1666 0.817383V9.29264H26.2107V3.15553H26.2781L28.423 9.28023H29.2895L31.4344 3.15967H31.5019V9.29264H32.5459V0.817383H31.2142L28.8989 7.40557H28.8137L26.4983 0.817383H25.1666Z" fill="white"/>
<path d="M36.9347 4.23563V0.817383H35.8339V9.29264H38.5576C40.1769 9.29264 41.1038 8.24151 41.1002 6.72275C41.1038 5.20813 40.1769 4.23563 38.5576 4.23563H36.9347ZM36.9347 5.31159H38.5576C39.4987 5.31159 40.0171 5.94061 40.0171 6.7062C40.0171 7.49248 39.4987 8.21668 38.5576 8.21668H36.9347V5.31159Z" fill="white"/>
</svg>
