<svg width="41" height="10" viewBox="0 0 41 10" fill="none" xmlns="http://www.w3.org/2000/svg">
<path d="M5.88081 0.695707H0.27002V9.17097H1.36377V1.78822H4.78706V9.17097H5.88081V0.695707Z" fill="white"/>
<path d="M15.0992 3.45182C14.8506 1.63924 13.6326 0.579834 12.0949 0.579834C10.2128 0.579834 8.82435 2.22274 8.82435 4.93334C8.82435 7.64393 10.2057 9.28684 12.0949 9.28684C13.693 9.28684 14.8613 8.11983 15.0992 6.44382L13.9913 6.43968C13.803 7.52392 13.0218 8.11983 12.102 8.11983C10.8556 8.11983 9.91455 7.00663 9.91455 4.93334C9.91455 2.8766 10.852 1.74684 12.1056 1.74684C13.0324 1.74684 13.8101 2.35517 13.9913 3.45182H15.0992Z" fill="white"/>
<path d="M22.2198 9.17097H23.5585L20.5578 4.52778L23.5763 0.695707H22.2162L19.386 4.27534H19.0095V0.695707H17.9122V9.17097H19.0095V5.372H19.7624L22.2198 9.17097Z" fill="white"/>
<path d="M32.1262 4.93334C32.1262 2.22274 30.7342 0.579834 28.8521 0.579834C26.9628 0.579834 25.5744 2.22274 25.5744 4.93334C25.5744 7.63979 26.9628 9.28684 28.8521 9.28684C30.7342 9.28684 32.1262 7.64393 32.1262 4.93334ZM31.0396 4.93334C31.0396 6.99835 30.1021 8.11983 28.8521 8.11983C27.5985 8.11983 26.6646 6.99835 26.6646 4.93334C26.6646 2.86832 27.5985 1.74684 28.8521 1.74684C30.1021 1.74684 31.0396 2.86832 31.0396 4.93334Z" fill="white"/>
<path d="M34.9943 9.17097H37.7819C39.4723 9.17097 40.2357 8.19019 40.2357 6.89076C40.2357 5.57891 39.4474 4.83815 38.7265 4.79263V4.70987C39.3941 4.51123 39.9517 3.98153 39.9517 2.92212C39.9517 1.66821 39.2059 0.695707 37.6576 0.695707H34.9943V9.17097ZM36.0916 8.07431V5.35958H37.7144C38.5951 5.35958 39.1455 6.02171 39.1455 6.82868C39.1455 7.54047 38.7301 8.07431 37.6754 8.07431H36.0916ZM36.0916 4.36225V1.78408H37.5902C38.4602 1.78408 38.8757 2.31792 38.8757 3.02144C38.8757 3.84082 38.3004 4.36225 37.5617 4.36225H36.0916Z" fill="white"/>
</svg>
