<svg width="53" height="10" viewBox="0 0 53 10" fill="none" xmlns="http://www.w3.org/2000/svg">
<path d="M0.441406 1.59166H2.70703V8.96613H3.80078V1.59166H6.06996V0.490873H0.441406V1.59166Z" fill="white"/>
<path d="M9.91105 0.490873H8.81374V8.96613H9.91105V5.3658H11.1859C11.3848 7.69153 12.6987 9.082 14.4352 9.082C16.3173 9.082 17.7093 7.4391 17.7093 4.7285C17.7093 2.01791 16.3173 0.375 14.4352 0.375C12.649 0.375 11.3102 1.8441 11.1681 4.29398H9.91105V0.490873ZM16.6227 4.7285C16.6227 6.79352 15.6852 7.915 14.4352 7.915C13.1816 7.915 12.2477 6.79352 12.2477 4.7285C12.2477 2.66349 13.1816 1.542 14.4352 1.542C15.6852 1.542 16.6227 2.66349 16.6227 4.7285Z" fill="white"/>
<path d="M20.3919 0.490873V8.96613H21.4359V2.82902H21.5034L23.6483 8.95372H24.5147L26.6596 2.83316H26.7271V8.96613H27.7711V0.490873H26.4395L24.1241 7.07906H24.0389L21.7235 0.490873H20.3919Z" fill="white"/>
<path d="M31.052 8.96613H35.6543V7.86534H32.1493V5.27062H35.3738V4.17397H32.1493V1.59166H35.6117V0.490873H31.052V8.96613Z" fill="white"/>
<path d="M38.5774 8.96613H39.6747V5.27062H43.3004V8.96613H44.4013V0.490873H43.3004V4.17397H39.6747V0.490873H38.5774V8.96613Z" fill="white"/>
<path d="M48.6073 3.90912V0.490873H47.5064V8.96613H50.2301C51.8494 8.96613 52.7763 7.915 52.7727 6.39624C52.7763 4.88162 51.8494 3.90912 50.2301 3.90912H48.6073ZM48.6073 4.98508H50.2301C51.1712 4.98508 51.6896 5.6141 51.6896 6.37969C51.6896 7.16597 51.1712 7.89017 50.2301 7.89017H48.6073V4.98508Z" fill="white"/>
</svg>
