<svg width="38" height="9" viewBox="0 0 38 9" fill="none" xmlns="http://www.w3.org/2000/svg">
<path d="M0.481934 1.25924H2.74756V8.63371H3.84131V1.25924H6.11049V0.158447H0.481934V1.25924Z" fill="white"/>
<path d="M8.85427 8.63371H11.6419C13.3323 8.63371 14.0957 7.65293 14.0957 6.3535C14.0957 5.04165 13.3074 4.3009 12.5865 4.25537V4.17261C13.2541 3.97397 13.8117 3.44427 13.8117 2.38486C13.8117 1.13095 13.0659 0.158447 11.5176 0.158447H8.85427V8.63371ZM9.95157 7.53705V4.82232H11.5744C12.4551 4.82232 13.0056 5.48445 13.0056 6.29142C13.0056 7.00321 12.5901 7.53705 11.5354 7.53705H9.95157ZM9.95157 3.82499V1.24682H11.4502C12.3202 1.24682 12.7357 1.78066 12.7357 2.48418C12.7357 3.30356 12.1604 3.82499 11.4217 3.82499H9.95157Z" fill="white"/>
<path d="M16.8972 8.63371H21.4995V7.53292H17.9945V4.9382H21.219V3.84154H17.9945V1.25924H21.4569V0.158447H16.8972V8.63371Z" fill="white"/>
<path d="M24.4226 8.63371H25.5199V5.65412H27.0114C28.6982 5.65412 29.5327 4.46643 29.5327 2.90215C29.5327 1.342 28.7053 0.158447 27.015 0.158447H24.4226V8.63371ZM25.5199 4.56989V1.2551H26.8978C27.9844 1.2551 28.4283 1.94206 28.4283 2.90215C28.4283 3.86223 27.9844 4.56989 26.912 4.56989H25.5199Z" fill="white"/>
<path d="M33.4271 3.57669V0.158447H32.3262V8.63371H35.0499C36.6693 8.63371 37.5961 7.58258 37.5926 6.06382C37.5961 4.54919 36.6693 3.57669 35.0499 3.57669H33.4271ZM33.4271 4.65265H35.0499C35.991 4.65265 36.5095 5.28167 36.5095 6.04726C36.5095 6.83354 35.991 7.55775 35.0499 7.55775H33.4271V4.65265Z" fill="white"/>
</svg>
