<svg width="64" height="12" viewBox="0 0 64 12" fill="none" xmlns="http://www.w3.org/2000/svg">
<path d="M1.89484 9.082H2.392C3.52836 9.082 3.90479 8.34125 4.22439 7.49703L6.73859 0.490873H5.58802L3.89058 5.39063L1.98362 0.490873H0.818848L3.37567 6.85146L3.27268 7.15355C3.11643 7.59635 2.87496 7.95638 2.33163 7.95638H1.89484V9.082Z" fill="white"/>
<path d="M8.72599 8.96613H9.03849C10.6933 8.96613 11.091 7.53428 11.1869 4.81127L11.3006 1.57511H13.7828V8.96613H14.8659V0.490873H10.2672L10.1429 4.47193C10.0648 6.92594 9.80908 7.82396 8.93905 7.84879L8.72599 7.85706V8.96613Z" fill="white"/>
<path d="M18.5783 8.96613L19.2459 6.72317H22.0868L22.7508 8.96613H23.9156L21.2984 0.490873H20.0307L17.4135 8.96613H18.5783ZM19.5655 5.64721L20.6379 2.03032H20.6947L21.7672 5.64721H19.5655Z" fill="white"/>
<path d="M26.4659 8.96613H27.5632V5.27062H31.1889V8.96613H32.2897V0.490873H31.1889V4.17397H27.5632V0.490873H26.4659V8.96613Z" fill="white"/>
<path d="M38.5163 4.19466H35.2919V5.26648H38.5163V4.19466Z" fill="white"/>
<path d="M41.3968 9.082H41.894C43.0303 9.082 43.4067 8.34125 43.7263 7.49703L46.2405 0.490873H45.09L43.3925 5.39063L41.4856 0.490873H40.3208L42.8776 6.85146L42.7746 7.15355C42.6184 7.59635 42.3769 7.95638 41.8336 7.95638H41.3968V9.082Z" fill="white"/>
<path d="M48.2279 11.0146H49.2791V8.96613H54.1619V11.0022H55.213V7.88189H54.3892V0.490873H49.9041L49.7336 4.07051C49.6235 6.42935 49.1939 7.40185 48.7073 7.88189H48.2279V11.0146ZM50 7.88189C50.4154 7.10803 50.696 5.8624 50.7848 4.07051L50.8984 1.59166H53.338V7.88189H50Z" fill="white"/>
<path d="M57.6843 6.27623C57.8228 7.88189 58.7248 9.082 60.479 9.082C62.2333 9.082 63.3554 7.55497 63.3554 5.17958V4.29812C63.3554 1.92273 62.2191 0.375 60.4186 0.375C58.707 0.375 57.8228 1.59166 57.6807 3.23043H58.7993C58.913 2.12964 59.3568 1.47579 60.4186 1.47579C61.587 1.47579 62.2404 2.57658 62.2439 4.28984H59.5628V5.37408H62.2404C62.1942 6.86801 61.6331 7.99777 60.479 7.99777C59.3888 7.99777 58.9236 7.39357 58.7993 6.27623H57.6843Z" fill="white"/>
</svg>
