<svg width="67" height="27" viewBox="0 0 67 27" fill="none" xmlns="http://www.w3.org/2000/svg">
<path d="M5.08692 10.8352H7.87456C9.5649 10.8352 10.3284 9.85441 10.3284 8.55498C10.3284 7.24313 9.54004 6.50238 8.81916 6.45686V6.37409C9.48677 6.17545 10.0443 5.64575 10.0443 4.58634C10.0443 3.33243 9.29856 2.35993 7.75027 2.35993H5.08692V10.8352ZM6.18421 9.73854V7.02381H7.80709C8.68777 7.02381 9.23819 7.68593 9.23819 8.4929C9.23819 9.20469 8.82271 9.73854 7.76802 9.73854H6.18421ZM6.18421 6.02647V3.4483H7.68279C8.55282 3.4483 8.96831 3.98215 8.96831 4.68566C8.96831 5.50504 8.39302 6.02647 7.65439 6.02647H6.18421Z" fill="white"/>
<path d="M13.1299 10.8352H17.7322V9.7344H14.2272V7.13968H17.4516V6.04303H14.2272V3.46072H17.6895V2.35993H13.1299V10.8352Z" fill="white"/>
<path d="M20.1048 10.8352H20.4173C22.0722 10.8352 22.4699 9.40333 22.5658 6.68033L22.6794 3.44417H25.1617V10.8352H26.2448V2.35993H21.646L21.5217 6.34098C21.4436 8.795 21.1879 9.69302 20.3179 9.71784L20.1048 9.72612V10.8352Z" fill="white"/>
<path d="M29.3428 2.35993V10.8352H30.3513L34.048 4.61945H34.1155V10.8352H35.2128V2.35993H34.1972L30.4969 8.58395H30.4294V2.35993H29.3428Z" fill="white"/>
<path d="M42.621 10.8352H43.9598L40.9591 6.192L43.9775 2.35993H42.6175L39.7872 5.93957H39.4108V2.35993H38.3135V10.8352H39.4108V7.03622H40.1636L42.621 10.8352Z" fill="white"/>
<path d="M46.5713 2.35993V10.8352H47.5798L51.2766 4.61945H51.344V10.8352H52.4413V2.35993H51.4257L47.7254 8.58395H47.6579V2.35993H46.5713Z" fill="white"/>
<path d="M55.542 2.35993V10.8352H56.5505L60.2473 4.61945H60.3147V10.8352H61.412V2.35993H60.3964L56.6961 8.58395H56.6286V2.35993H55.542ZM59.1748 0.208008C59.1748 0.625977 58.9759 0.994287 58.4788 0.994287C57.9745 0.994287 57.7863 0.621839 57.7863 0.208008H56.9163C56.9163 1.13913 57.5235 1.78057 58.4788 1.78057C59.4411 1.78057 60.0484 1.13913 60.0484 0.208008H59.1748Z" fill="white"/>
<path d="M0.538086 24.8194H1.63539V21.1239H5.2611V24.8194H6.36195V16.3441H5.2611V20.0272H1.63539V16.3441H0.538086V24.8194Z" fill="white"/>
<path d="M15.7774 20.5817C15.7774 17.8711 14.3854 16.2282 12.5033 16.2282C10.6141 16.2282 9.22559 17.8711 9.22559 20.5817C9.22559 23.2882 10.6141 24.9352 12.5033 24.9352C14.3854 24.9352 15.7774 23.2923 15.7774 20.5817ZM14.6908 20.5817C14.6908 22.6468 13.7533 23.7682 12.5033 23.7682C11.2497 23.7682 10.3158 22.6468 10.3158 20.5817C10.3158 18.5167 11.2497 17.3952 12.5033 17.3952C13.7533 17.3952 14.6908 18.5167 14.6908 20.5817Z" fill="white"/>
<path d="M18.6455 24.8194H21.4331C23.1235 24.8194 23.887 23.8386 23.887 22.5392C23.887 21.2273 23.0986 20.4866 22.3778 20.441V20.3583C23.0454 20.1596 23.6029 19.6299 23.6029 18.5705C23.6029 17.3166 22.8572 16.3441 21.3089 16.3441H18.6455V24.8194ZM19.7428 23.7227V21.008H21.3657C22.2464 21.008 22.7968 21.6701 22.7968 22.4771C22.7968 23.1889 22.3813 23.7227 21.3266 23.7227H19.7428ZM19.7428 20.0106V17.4325H21.2414C22.1114 17.4325 22.5269 17.9663 22.5269 18.6698C22.5269 19.4892 21.9516 20.0106 21.213 20.0106H19.7428Z" fill="white"/>
<path d="M31.2233 16.3441H26.6885V24.8194H27.7858V17.4449H31.2233V16.3441Z" fill="white"/>
<path d="M39.9747 20.5817C39.9747 17.8711 38.5827 16.2282 36.7006 16.2282C34.8113 16.2282 33.4229 17.8711 33.4229 20.5817C33.4229 23.2882 34.8113 24.9352 36.7006 24.9352C38.5827 24.9352 39.9747 23.2923 39.9747 20.5817ZM38.8881 20.5817C38.8881 22.6468 37.9506 23.7682 36.7006 23.7682C35.447 23.7682 34.5131 22.6468 34.5131 20.5817C34.5131 18.5167 35.447 17.3952 36.7006 17.3952C37.9506 17.3952 38.8881 18.5167 38.8881 20.5817Z" fill="white"/>
<path d="M42.8428 24.8194H43.9401V21.8398H45.4316C47.1183 21.8398 47.9529 20.6521 47.9529 19.0878C47.9529 17.5277 47.1254 16.3441 45.4351 16.3441H42.8428V24.8194ZM43.9401 20.7555V17.4408H45.3179C46.4046 17.4408 46.8485 18.1277 46.8485 19.0878C46.8485 20.0479 46.4046 20.7555 45.3321 20.7555H43.9401Z" fill="white"/>
<path d="M57.0567 20.5817C57.0567 17.8711 55.6647 16.2282 53.7826 16.2282C51.8934 16.2282 50.5049 17.8711 50.5049 20.5817C50.5049 23.2882 51.8934 24.9352 53.7826 24.9352C55.6647 24.9352 57.0567 23.2923 57.0567 20.5817ZM55.9701 20.5817C55.9701 22.6468 55.0326 23.7682 53.7826 23.7682C52.529 23.7682 51.5951 22.6468 51.5951 20.5817C51.5951 18.5167 52.529 17.3952 53.7826 17.3952C55.0326 17.3952 55.9701 18.5167 55.9701 20.5817Z" fill="white"/>
<path d="M59.3744 26.8678H60.4255V24.8194H65.3083V26.8554H66.3595V23.7351H65.5356V16.3441H61.0505L60.8801 19.9237C60.77 22.2826 60.3403 23.2551 59.8538 23.7351H59.3744V26.8678ZM61.1464 23.7351C61.5619 22.9613 61.8424 21.7156 61.9312 19.9237L62.0448 17.4449H64.4845V23.7351H61.1464Z" fill="white"/>
</svg>
