<svg width="74" height="10" viewBox="0 0 74 10" fill="none" xmlns="http://www.w3.org/2000/svg">
<path d="M5.65123 9.2718V0.796537H3.0589C1.37211 0.796537 0.541149 1.89319 0.541149 3.45333C0.541149 4.59137 0.985041 5.45627 1.87638 5.84114L0.26416 9.2718H1.51416L2.99143 6.06461C3.01629 6.06461 3.0376 6.06461 3.06246 6.06461H4.55393V9.2718H5.65123ZM4.55393 4.96382H3.16189C2.093 4.96382 1.64555 4.40928 1.64555 3.45333C1.64555 2.49324 2.093 1.89319 3.17609 1.89319H4.55393V4.96382Z" fill="white"/>
<path d="M8.74569 9.2718H9.843V6.29221H11.3345C13.0213 6.29221 13.8558 5.10452 13.8558 3.54024C13.8558 1.98009 13.0284 0.796537 11.338 0.796537H8.74569V9.2718ZM9.843 5.20798V1.89319H11.2208C12.3075 1.89319 12.7514 2.58015 12.7514 3.54024C12.7514 4.50032 12.3075 5.20798 11.235 5.20798H9.843Z" fill="white"/>
<path d="M22.9597 5.03417C22.9597 2.32357 21.5676 0.680664 19.6855 0.680664C17.7963 0.680664 16.4078 2.32357 16.4078 5.03417C16.4078 7.74062 17.7963 9.38767 19.6855 9.38767C21.5676 9.38767 22.9597 7.74476 22.9597 5.03417ZM21.873 5.03417C21.873 7.09918 20.9355 8.22066 19.6855 8.22066C18.4319 8.22066 17.498 7.09918 17.498 5.03417C17.498 2.96915 18.4319 1.84767 19.6855 1.84767C20.9355 1.84767 21.873 2.96915 21.873 5.03417Z" fill="white"/>
<path d="M31.8682 3.55265C31.6196 1.74007 30.4016 0.680664 28.8639 0.680664C26.9818 0.680664 25.5933 2.32357 25.5933 5.03417C25.5933 7.74476 26.9747 9.38767 28.8639 9.38767C30.462 9.38767 31.6303 8.22066 31.8682 6.54465L30.7603 6.54051C30.572 7.62475 29.7908 8.22066 28.871 8.22066C27.6246 8.22066 26.6835 7.10746 26.6835 5.03417C26.6835 2.97743 27.621 1.84767 28.8746 1.84767C29.8014 1.84767 30.5791 2.456 30.7603 3.55265H31.8682Z" fill="white"/>
<path d="M34.1308 9.2718H34.4433C36.0981 9.2718 36.4959 7.83994 36.5918 5.11693L36.7054 1.88077H39.1876V9.2718H40.2707V0.796537H35.672L35.5477 4.77759C35.4696 7.23161 35.2139 8.12962 34.3439 8.15445L34.1308 8.16273V9.2718Z" fill="white"/>
<path d="M43.9831 9.2718L44.6507 7.02883H47.4916L48.1557 9.2718H49.3204L46.7033 0.796537H45.4355L42.8183 9.2718H43.9831ZM44.9703 5.95287L46.0427 2.33599H46.0996L47.172 5.95287H44.9703Z" fill="white"/>
<path d="M51.8707 9.2718H54.6583C56.3487 9.2718 57.1122 8.29102 57.1122 6.99159C57.1122 5.67974 56.3238 4.93898 55.6029 4.89346V4.8107C56.2706 4.61206 56.8281 4.08236 56.8281 3.02295C56.8281 1.76904 56.0823 0.796537 54.534 0.796537H51.8707V9.2718ZM52.968 8.17514V5.46041H54.5909C55.4715 5.46041 56.022 6.12254 56.022 6.92951C56.022 7.6413 55.6065 8.17514 54.5518 8.17514H52.968ZM52.968 4.46308V1.88491H54.4666C55.3366 1.88491 55.7521 2.41875 55.7521 3.12227C55.7521 3.94165 55.1768 4.46308 54.4382 4.46308H52.968Z" fill="white"/>
<path d="M59.3632 9.2718H59.6757C61.3306 9.2718 61.7283 7.83994 61.8242 5.11693L61.9378 1.88077H64.4201V9.2718H65.5032V0.796537H60.9044L60.7801 4.77759C60.702 7.23161 60.4463 8.12962 59.5763 8.15445L59.3632 8.16273V9.2718Z" fill="white"/>
<path d="M69.7091 4.21478V0.796537H68.6083V9.2718H71.332C72.9513 9.2718 73.8781 8.22066 73.8746 6.7019C73.8781 5.18728 72.9513 4.21478 71.332 4.21478H69.7091ZM69.7091 5.29074H71.332C72.273 5.29074 72.7915 5.91976 72.7915 6.68535C72.7915 7.47163 72.273 8.19584 71.332 8.19584H69.7091V5.29074Z" fill="white"/>
</svg>
